
nColumns=19
nRows=56
DataType=double
version=3
OpenSimVersion=4.4-2022-10-11-798caa840
endheader
time	ground_force_calcn_r_vx	ground_force_calcn_r_vy	ground_force_calcn_r_vz	ground_force_calcn_r_px	ground_force_calcn_r_py	ground_force_calcn_r_pz	ground_force_calcn_r_mx	ground_force_calcn_r_my	ground_force_calcn_r_mz	ground_force_calcn_l_vx	ground_force_calcn_l_vy	ground_force_calcn_l_vz	ground_force_calcn_l_px	ground_force_calcn_l_py	ground_force_calcn_l_pz	ground_force_calcn_l_mx	ground_force_calcn_l_my	ground_force_calcn_l_mz
0	-19.0883	90.7169	8.539619999999999	0.0382268	0	-0.169597	-0.101321	0.481526	0.0453284	0	0	0	0	0	0	0	0	0
0.01	-26.6195	122.922	9.609819999999999	0.0440597	0	-0.168962	-0.100653	0.464788	0.0363363	0	0	0	0	0	0	0	0	0
0.02	-35.0678	159.045	10.4381	0.0498585	0	-0.168516	-0.09961	0.451768	0.0296494	0	0	0	0	0	0	0	0	0
0.03	-44.3344	198.333	10.8756	0.0551075	0	-0.168207	-0.0991725	0.443655	0.0243278	0	0	0	0	0	0	0	0	0
0.04	-54.2812	239.964	10.7819	0.0600892	0	-0.167973	-0.100196	0.44294	0.0199018	0	0	0	0	0	0	0	0	0
0.05	-64.69199999999999	283.173	10.0506	0.06492009999999999	0	-0.167778	-0.103038	0.451023	0.016008	0	0	0	0	0	0	0	0	0
0.06	-75.3079	327.227	8.61849	0.0696242	0	-0.167607	-0.107509	0.467146	0.0123037	0	0	0	0	0	0	0	0	0
0.07000000000000001	-85.8163	371.382	6.49054	0.0741723	0	-0.167461	-0.113173	0.48977	0.008559570000000001	0	0	0	0	0	0	0	0	0
0.08	-95.8412	414.847	3.75947	0.07851180000000001	0	-0.167355	-0.119838	0.518716	0.00470076	0	0	0	0	0	0	0	0	0
0.09	-104.992	456.814	0.592948	0.0825914	0	-0.167305	-0.127393	0.55428	0.000719459	0	0	0	0	0	0	0	0	0
0.1	-112.937	496.574	-2.81003	0.0863883	0	-0.167325	-0.135177	0.594359	-0.00336338	0	0	0	0	0	0	0	0	0
0.11	-119.431	533.54	-6.25648	0.0898969	0	-0.167415	-0.141854	0.6337120000000001	-0.00743114	0	0	0	0	0	0	0	0	0
0.12	-124.297	567.188	-9.58231	0.09312960000000001	0	-0.167573	-0.145676	0.6647420000000001	-0.0112304	0	0	0	0	0	0	0	0	0
0.13	-127.43	597.001	-12.6649	0.09610580000000001	0	-0.167791	-0.144882	0.678762	-0.0143994	0	0	0	0	0	0	0	0	0
0.14	-128.797	622.477	-15.4246	0.098858	0	-0.168054	-0.13818	0.6678269999999999	-0.0165483	0	0	0	0	0	0	0	0	0
0.15	-128.443	643.178	-17.8131	0.101425	0	-0.168349	-0.125179	0.626837	-0.0173606	0	0	0	0	0	0	0	0	0
0.16	-126.494	658.772	-19.8091	0.103854	0	-0.168665	-0.106381	0.554022	-0.0166593	0	0	0	0	0	0	0	0	0
0.17	-123.138	669.08	-21.414	0.106195	0	-0.168987	-0.0829926	0.450948	-0.0144327	0	0	0	0	0	0	0	0	0
0.18	-118.598	674.1079999999999	-22.6398	0.108495	0	-0.169308	-0.0567035	0.3223	-0.0108244	0	0	0	0	0	0	0	0	0
0.19	-113.111	674.0650000000001	-23.5036	0.110794	0	-0.169624	-0.0293305	0.17479	-0.00609464	0	0	0	0	0	0	0	0	0
0.2	-106.896	669.338	-24.0262	0.113119	0	-0.169932	-0.00251269	0.0157334	-0.000564759	0	0	0	0	0	0	0	0	0
0.21	-100.145	660.4640000000001	-24.2308	0.115484	0	-0.170232	0.0224549	-0.148092	0.00543312	0	0	0	0	0	0	0	0	0
0.22	-93.02509999999999	648.076	-24.1433	0.117897	0	-0.170525	0.0446861	-0.311314	0.0115976	0	0	0	0	0	0	0	0	0
0.23	-85.6832	632.857	-23.7951	0.120359	0	-0.170811	0.0636929	-0.470436	0.0176882	0	0	0	0	0	0	0	0	0
0.24	-78.2543	615.5069999999999	-23.2288	0.12287	0	-0.171089	0.0793012	-0.623741	0.0235396	0	0	0	0	0	0	0	0	0
0.25	-70.86490000000001	596.717	-22.5006	0.125432	0	-0.171356	0.0915545	-0.770933	0.0290699	0	0	0	0	0	0	0	0	0
0.26	-63.6331	577.1559999999999	-21.6776	0.128054	0	-0.171602	0.100619	-0.912619	0.0342773	0	0	0	0	0	0	0	0	0
0.27	-56.665	557.466	-20.8313	0.130749	0	-0.171821	0.106697	-1.04968	0.0392241	0	0	0	0	0	0	0	0	0
0.28	-50.0499	538.245	-20.0295	0.133534	0	-0.172004	0.109993	-1.18289	0.0440184	0	0	0	0	0	0	0	0	0
0.29	-43.8564	520.051	-19.3299	0.136425	0	-0.172141	0.11072	-1.31292	0.0488001	0	0	0	0	0	0	0	0	0
0.3	-38.1287	503.392	-18.7745	0.139439	0	-0.172223	0.1091	-1.44039	0.0537208	0	0	0	0	0	0	0	0	0
0.31	-32.8868	488.715	-18.3883	0.142585	0	-0.172246	0.105378	-1.56597	0.0589209	0	0	0	0	0	0	0	0	0
0.32	-28.1285	476.394	-18.1817	0.145871	0	-0.172204	0.0998241	-1.69065	0.0645245	0	0	0	0	0	0	0	0	0
0.33	-23.8326	466.714	-18.1544	0.149288	0	-0.172096	0.0927332	-1.81599	0.0706392	0	0	0	0	0	0	0	0	0
0.34	-19.9612	459.872	-18.2995	0.152824	0	-0.171921	0.0843841	-1.94407	0.0773595	0	0	0	0	0	0	0	0	0
0.35	-16.4597	455.976	-18.6082	0.156455	0	-0.171685	0.07498929999999999	-2.07739	0.08477750000000001	0	0	0	0	0	0	0	0	0
0.36	-13.2594	455.054	-19.0728	0.160148	0	-0.171391	0.064646	-2.21861	0.0929895	0	0	0	0	0	0	0	0	0
0.37	-10.2807	457.057	-19.6876	0.163872	0	-0.171046	0.0533077	-2.36995	0.102085	0	0	0	0	0	0	0	0	0
0.38	-7.43805	461.877	-20.4481	0.167593	0	-0.170655	0.0407852	-2.53262	0.112123	0	0	0	0	0	0	0	0	0
0.39	-4.64325	469.348	-21.3496	0.171285	0	-0.170228	0.0267741	-2.70637	0.123107	0	0	0	0	0	0	0	0	0
0.4	-1.80847	479.258	-22.386	0.174926	0	-0.169772	0.010903	-2.88937	0.134962	0	0	0	0	0	0	0	0	0
0.41	1.15126	491.345	-23.5476	0.178499	0	-0.169296	-0.00721267	-3.07828	0.147526	0	0	0	0	0	0	0	0	0
0.42	4.31658	505.297	-24.8203	0.181994	0	-0.16881	-0.0279212	-3.26845	0.160547	0	0	0	0	0	0	0	0	0
0.43	7.76214	520.739	-26.1844	0.185404	0	-0.168322	-0.0514882	-3.45419	0.173687	0	0	0	0	0	0	0	0	0
0.44	11.5541	537.244	-27.6152	0.188726	0	-0.167838	-0.0780544	-3.62938	0.186556	0	0	0	0	0	0	0	0	0
0.45	15.7462	554.3440000000001	-29.0817	0.191954	0	-0.167369	-0.107599	-3.78803	0.198726	0	0	0	0	0	0	0	0	0
0.46	20.3733	571.551	-30.5454	0.195086	0	-0.166922	-0.139905	-3.92489	0.209758	0	0	0	0	0	0	0	0	0
0.47	25.4459	588.3680000000001	-31.9603	0.198118	0	-0.166502	-0.174538	-4.03572	0.219221	0	0	0	0	0	0	0	0	0
0.48	30.9475	604.296	-33.2759	0.201044	0	-0.166118	-0.210859	-4.11734	0.226724	0	0	0	0	0	0	0	0	0
0.49	36.8341	618.824	-34.4424	0.203865	0	-0.165774	-0.248058	-4.16745	0.231951	0	0	0	0	0	0	0	0	0
0.5	43.0365	631.441	-35.4135	0.206576	0	-0.165471	-0.285211	-4.18468	0.234692	0	0	0	0	0	0	0	0	0
0.51	49.4638	641.63	-36.1465	0.209175	0	-0.165213	-0.321373	-4.16876	0.234849	0	0	0	0	0	0	0	0	0
0.52	56.0061	648.878	-36.6055	0.211664	0	-0.165002	-0.355631	-4.12029	0.23244	0	0	0	0	0	0	0	0	0
0.53	62.5326	652.672	-36.7631	0.214041	0	-0.164837	-0.387118	-4.04048	0.227588	0	0	0	0	0	0	0	0	0
0.54	68.88890000000001	652.52	-36.5997	0.216315	0	-0.164715	-0.414994	-3.93086	0.220481	0.0194547	34.1235	-5.58663	0.658913	0	-0.311251	0.0001038	0.182064	-0.0298072
0.55	74.8973	647.967	-36.1025	0.218496	0	-0.164637	-0.438441	-3.79313	0.21134	-2.04457	54.9428	-5.95632	0.689248	0	-0.32311	-0.00955277	0.256708	-0.0278295
